<mxfile host="65bd71144e">
    <diagram id="qr058wQkkqnJRvFbcgtC" name="Page-1">
        <mxGraphModel dx="903" dy="635" grid="1" gridSize="10" guides="1" tooltips="1" connect="1" arrows="1" fold="1" page="1" pageScale="1" pageWidth="827" pageHeight="1169" math="0" shadow="0">
            <root>
                <mxCell id="0"/>
                <mxCell id="1" parent="0"/>
                <mxCell id="2" value="" style="ellipse;html=1;shape=startState;fillColor=#000000;strokeColor=#ff0000;" parent="1" vertex="1">
                    <mxGeometry x="399" y="20" width="30" height="30" as="geometry"/>
                </mxCell>
                <mxCell id="3" value="" style="edgeStyle=orthogonalEdgeStyle;html=1;verticalAlign=bottom;endArrow=open;endSize=8;strokeColor=#ff0000;" parent="1" source="2" edge="1">
                    <mxGeometry relative="1" as="geometry">
                        <mxPoint x="414" y="110" as="targetPoint"/>
                    </mxGeometry>
                </mxCell>
                <mxCell id="6" style="edgeStyle=none;html=1;" edge="1" parent="1" source="9">
                    <mxGeometry relative="1" as="geometry">
                        <mxPoint x="414" y="210" as="targetPoint"/>
                    </mxGeometry>
                </mxCell>
                <mxCell id="10" style="edgeStyle=none;html=1;" edge="1" parent="1" source="4">
                    <mxGeometry relative="1" as="geometry">
                        <mxPoint x="580" y="125" as="targetPoint"/>
                    </mxGeometry>
                </mxCell>
                <mxCell id="4" value="Prompt User: Wanna play y/n?" style="rounded=0;whiteSpace=wrap;html=1;" parent="1" vertex="1">
                    <mxGeometry x="316" y="100" width="196" height="50" as="geometry"/>
                </mxCell>
                <mxCell id="29" style="edgeStyle=none;html=1;entryX=0;entryY=0.5;entryDx=0;entryDy=0;" edge="1" parent="1" source="7" target="26">
                    <mxGeometry relative="1" as="geometry"/>
                </mxCell>
                <mxCell id="7" value="Select 2 random cards for user" style="rounded=0;whiteSpace=wrap;html=1;" vertex="1" parent="1">
                    <mxGeometry x="316" y="210" width="196" height="50" as="geometry"/>
                </mxCell>
                <mxCell id="8" value="" style="edgeStyle=none;html=1;" edge="1" parent="1" source="4" target="9">
                    <mxGeometry relative="1" as="geometry">
                        <mxPoint x="414" y="210" as="targetPoint"/>
                        <mxPoint x="414" y="150" as="sourcePoint"/>
                    </mxGeometry>
                </mxCell>
                <mxCell id="9" value="&amp;nbsp; &amp;nbsp; &amp;nbsp; Yes" style="strokeWidth=1;html=1;shadow=0;dashed=0;shape=mxgraph.ios.iTextInput;strokeColor=#444444;buttonText=;fontSize=8;whiteSpace=wrap;align=left;" vertex="1" parent="1">
                    <mxGeometry x="392.25" y="172.5" width="43.5" height="15" as="geometry"/>
                </mxCell>
                <mxCell id="13" style="edgeStyle=none;html=1;" edge="1" parent="1" source="12">
                    <mxGeometry relative="1" as="geometry">
                        <mxPoint x="640" y="125.5" as="targetPoint"/>
                    </mxGeometry>
                </mxCell>
                <mxCell id="12" value="&lt;span style=&quot;white-space: pre;&quot;&gt;&#x9;&lt;/span&gt;No" style="strokeWidth=1;html=1;shadow=0;dashed=0;shape=mxgraph.ios.iTextInput;strokeColor=#444444;buttonText=;fontSize=8;whiteSpace=wrap;align=left;" vertex="1" parent="1">
                    <mxGeometry x="540" y="118" width="43.5" height="15" as="geometry"/>
                </mxCell>
                <mxCell id="15" value="" style="ellipse;html=1;shape=endState;fillColor=#000000;strokeColor=#ff0000;" vertex="1" parent="1">
                    <mxGeometry x="640" y="110" width="30" height="30" as="geometry"/>
                </mxCell>
                <mxCell id="18" style="edgeStyle=none;html=1;" edge="1" parent="1" source="17">
                    <mxGeometry relative="1" as="geometry">
                        <mxPoint x="414" y="430" as="targetPoint"/>
                    </mxGeometry>
                </mxCell>
                <mxCell id="32" style="edgeStyle=none;html=1;" edge="1" parent="1" source="17">
                    <mxGeometry relative="1" as="geometry">
                        <mxPoint x="220" y="350" as="targetPoint"/>
                    </mxGeometry>
                </mxCell>
                <mxCell id="17" value="&amp;nbsp;Prompt user to get one more card" style="rounded=1;whiteSpace=wrap;html=1;" vertex="1" parent="1">
                    <mxGeometry x="314" y="320" width="200" height="60" as="geometry"/>
                </mxCell>
                <mxCell id="19" value="Yes" style="text;html=1;align=center;verticalAlign=middle;resizable=0;points=[];autosize=1;strokeColor=none;fillColor=none;" vertex="1" parent="1">
                    <mxGeometry x="408" y="390" width="40" height="30" as="geometry"/>
                </mxCell>
                <mxCell id="21" style="edgeStyle=none;html=1;" edge="1" parent="1" source="20">
                    <mxGeometry relative="1" as="geometry">
                        <mxPoint x="414" y="550" as="targetPoint"/>
                    </mxGeometry>
                </mxCell>
                <mxCell id="38" style="edgeStyle=none;html=1;entryX=0.706;entryY=1;entryDx=0;entryDy=0;entryPerimeter=0;" edge="1" parent="1" source="20" target="26">
                    <mxGeometry relative="1" as="geometry">
                        <mxPoint x="560" y="460" as="targetPoint"/>
                        <Array as="points">
                            <mxPoint x="760" y="460"/>
                        </Array>
                    </mxGeometry>
                </mxCell>
                <mxCell id="20" value="Draw the card and check if the card is 11" style="rounded=1;whiteSpace=wrap;html=1;" vertex="1" parent="1">
                    <mxGeometry x="334" y="430" width="160" height="60" as="geometry"/>
                </mxCell>
                <mxCell id="22" value="Yes" style="text;html=1;align=center;verticalAlign=middle;resizable=0;points=[];autosize=1;strokeColor=none;fillColor=none;" vertex="1" parent="1">
                    <mxGeometry x="408" y="500" width="40" height="30" as="geometry"/>
                </mxCell>
                <mxCell id="37" style="edgeStyle=none;html=1;" edge="1" parent="1" source="23">
                    <mxGeometry relative="1" as="geometry">
                        <mxPoint x="780" y="270" as="targetPoint"/>
                        <Array as="points">
                            <mxPoint x="780" y="580"/>
                        </Array>
                    </mxGeometry>
                </mxCell>
                <mxCell id="23" value="Check if the total goes over 21, change the card to 1" style="rounded=1;whiteSpace=wrap;html=1;" vertex="1" parent="1">
                    <mxGeometry x="354" y="550" width="120" height="60" as="geometry"/>
                </mxCell>
                <mxCell id="26" value="Show Total" style="rounded=1;whiteSpace=wrap;html=1;" vertex="1" parent="1">
                    <mxGeometry x="640" y="205" width="170" height="60" as="geometry"/>
                </mxCell>
                <mxCell id="31" value="" style="edgeStyle=none;html=1;exitX=0.324;exitY=0.95;exitDx=0;exitDy=0;exitPerimeter=0;" edge="1" parent="1" source="26" target="28">
                    <mxGeometry relative="1" as="geometry">
                        <mxPoint x="700" y="430" as="targetPoint"/>
                        <mxPoint x="690" y="270" as="sourcePoint"/>
                    </mxGeometry>
                </mxCell>
                <mxCell id="28" value="Computer Draw&#39;s the Card" style="rounded=1;whiteSpace=wrap;html=1;" vertex="1" parent="1">
                    <mxGeometry x="660" y="320" width="70" height="60" as="geometry"/>
                </mxCell>
                <mxCell id="33" value="No" style="text;html=1;align=center;verticalAlign=middle;resizable=0;points=[];autosize=1;strokeColor=none;fillColor=none;" vertex="1" parent="1">
                    <mxGeometry x="250" y="320" width="40" height="30" as="geometry"/>
                </mxCell>
                <mxCell id="35" style="edgeStyle=none;html=1;" edge="1" parent="1" source="34">
                    <mxGeometry relative="1" as="geometry">
                        <mxPoint x="160" y="460" as="targetPoint"/>
                    </mxGeometry>
                </mxCell>
                <mxCell id="34" value="Computer Draw&#39;s the Card" style="rounded=1;whiteSpace=wrap;html=1;" vertex="1" parent="1">
                    <mxGeometry x="100" y="320" width="120" height="60" as="geometry"/>
                </mxCell>
                <mxCell id="47" style="edgeStyle=none;html=1;entryX=0.5;entryY=0;entryDx=0;entryDy=0;" edge="1" parent="1" source="36" target="45">
                    <mxGeometry relative="1" as="geometry"/>
                </mxCell>
                <mxCell id="36" value="Compare total and decide the winner" style="rounded=0;whiteSpace=wrap;html=1;" vertex="1" parent="1">
                    <mxGeometry x="100" y="470" width="120" height="60" as="geometry"/>
                </mxCell>
                <mxCell id="41" value="No" style="text;html=1;align=center;verticalAlign=middle;resizable=0;points=[];autosize=1;strokeColor=none;fillColor=none;" vertex="1" parent="1">
                    <mxGeometry x="610" y="430" width="40" height="30" as="geometry"/>
                </mxCell>
                <mxCell id="43" style="edgeStyle=none;html=1;entryX=1;entryY=0.5;entryDx=0;entryDy=0;" edge="1" parent="1" source="42" target="17">
                    <mxGeometry relative="1" as="geometry">
                        <mxPoint x="520" y="360" as="targetPoint"/>
                    </mxGeometry>
                </mxCell>
                <mxCell id="48" style="edgeStyle=none;html=1;entryX=0.5;entryY=0;entryDx=0;entryDy=0;" edge="1" parent="1" source="42" target="46">
                    <mxGeometry relative="1" as="geometry"/>
                </mxCell>
                <mxCell id="42" value="&lt;span style=&quot;color: rgb(0, 0, 0);&quot;&gt;Check computer&#39;s total, if total &amp;lt;= 21&lt;/span&gt;" style="rounded=1;whiteSpace=wrap;html=1;" vertex="1" parent="1">
                    <mxGeometry x="570" y="315" width="60" height="70" as="geometry"/>
                </mxCell>
                <mxCell id="44" value="Yes" style="text;html=1;align=center;verticalAlign=middle;resizable=0;points=[];autosize=1;strokeColor=none;fillColor=none;" vertex="1" parent="1">
                    <mxGeometry x="520" y="320" width="40" height="30" as="geometry"/>
                </mxCell>
                <mxCell id="45" value="" style="ellipse;html=1;shape=endState;fillColor=#000000;strokeColor=#ff0000;" vertex="1" parent="1">
                    <mxGeometry x="145" y="570" width="30" height="30" as="geometry"/>
                </mxCell>
                <mxCell id="46" value="" style="ellipse;html=1;shape=endState;fillColor=#000000;strokeColor=#ff0000;" vertex="1" parent="1">
                    <mxGeometry x="583.5" y="420" width="30" height="30" as="geometry"/>
                </mxCell>
                <mxCell id="49" style="edgeStyle=none;html=1;entryX=1;entryY=0.5;entryDx=0;entryDy=0;" edge="1" parent="1" source="28" target="42">
                    <mxGeometry relative="1" as="geometry"/>
                </mxCell>
                <mxCell id="50" value="No" style="text;html=1;align=center;verticalAlign=middle;resizable=0;points=[];autosize=1;strokeColor=none;fillColor=none;" vertex="1" parent="1">
                    <mxGeometry x="570" y="385" width="40" height="30" as="geometry"/>
                </mxCell>
            </root>
        </mxGraphModel>
    </diagram>
</mxfile>